<svg xmlns="http://www.w3.org/2000/svg" xmlns:xlink="http://www.w3.org/1999/xlink" version="1.1" x="0px" y="0px" viewBox="0 0 128 160" style="enable-background:new 0 0 128 128;" xml:space="preserve"><path d="M57,54c14.910202,0,27-12.0898018,27-26.9990005C84,12.0897999,71.910202,0,57,0C42.0868988,0,30,12.0897999,30,27.0009995  C30,41.9101982,42.0868988,54,57,54z M57,4c12.6820984,0,23,10.3184004,23,23.0009995C80,39.6825981,69.6820984,50,57,50  S34,39.6825981,34,27.0009995C34,14.3184004,44.3179016,4,57,4z"/><path d="M126.3759995,66.3510971c-0.1665039-0.0234985-16.7910004-2.5038986-24.9317017-11.7099953  c-0.350502-0.3965034-0.8554001-0.6284027-1.3886032-0.6396027c-0.0214996-0.0009995-0.0429993-0.0009995-0.0644913-0.0009995  c-0.5010071,0-0.9990005,0.2168007-1.3516006,0.5825005c-0.0400009,0.0419998-1.6595993,1.6968002-4.385704,3.6991997  c-4.9716949-3.6118011-10.6190948-6.3935013-16.6576996-8.1400986c-1.2778015,1.1391983-2.6513977,2.1713982-4.1054993,3.0888977  c6.1480026,1.384201,12.0064011,3.9286995,17.1704025,7.4326019c-4.1576996,2.4706993-9.6245041,4.7552986-15.6377029,4.7552986  c-0.3368988,0-0.6733017-0.0073013-1.0135956-0.0218964c-0.0318069-0.001503-0.0630035-0.0025024-0.0943069-0.0025024  c-0.9979935,0-1.8334961,0.785202-1.8827972,1.7823029c-0.0199966,0.4042969-0.4545975,10.0205002,2.5527039,21.0843964  c4.0419998,14.8731003,12.4360962,25.1132965,24.2739944,29.6138c0.2182007,0.0830002,0.4502029,0.125,0.6816025,0.125  c0.1625977,0,0.3246994-0.0205002,0.4843979-0.0625c0.2289963-0.0596008,4.6757965-1.2621994,9.9746017-5.4701996v6.1195984  C110,121.5718002,107.5590973,124,104.5585938,124H9.4394503C6.43994,124,4,121.5718002,4,118.5868988V95.7733994  c0-11.8685989,5.0771503-22.9545975,14.2968998-31.214798c6.2124004-5.5664024,13.9676991-9.4701996,22.2133999-11.3272018  c-1.4541016-0.9174004-2.8277016-1.9496994-4.1054993-3.0882988C16.0410004,56.0346985,0,73.5474014,0,95.7733994v22.8134995  C0,123.7813034,4.2255902,128,9.4394503,128h95.1191406C109.7724991,128,114,123.7813034,114,118.5868988v-9.7846985  c6.1796951-6.4974976,13.5820007-18.7865982,13.9994965-40.5620041  C128.0186005,67.2968979,127.3222961,66.4872971,126.3759995,66.3510971z M111.016098,106.1396027  c-4.8930969,5.1069946-9.7412033,7.1445999-11.4048004,7.7333984C89.3701019,109.7128983,82.0596008,100.5112,78.4452972,87.2118988  c-2.0805969-7.6542969-2.4203949-14.5259018-2.4462967-17.8099976c11.2041016-0.3931046,20.3906021-7.4302025,23.9413986-10.5615997  c7.578598,7.2471008,19.4574966,10.2216949,24.0077972,11.1357956  C123.1972961,89.4340973,116.551796,100.3603973,111.016098,106.1396027z"/><path d="M89.3651962,83.653801c-0.8085938-0.7544022-2.0737-0.7099991-2.827095,0.0967026  c-0.7538986,0.8075943-0.7105026,2.0731964,0.0967026,2.827095l8.4422989,7.8843002  C95.4614029,94.8202972,95.9516983,95,96.4423981,95c0.4785004,0,0.9570007-0.1708984,1.3378983-0.5131989l15.5576019-14  c0.8208008-0.7388,0.8876953-2.0034027,0.1488953-2.8246994c-0.7391968-0.8213043-2.0038986-0.8877029-2.8246994-0.1489029  L96.4673004,90.2871017L89.3651962,83.653801z"/><path d="M26.4853992,73.4311981c0.7905006-0.7714996,0.8056011-2.0375977,0.0341015-2.8282013  c-0.7715015-0.7904968-2.0381012-0.8065948-2.8281002-0.0341949C17.4419003,76.6688995,14,84.7089996,14,93.2074966v16.7070999  C14,114.3506012,15.6444998,116,20.0678997,116H50c1.1044998,0,2-0.8955002,2-2s-0.8955002-2-2-2H20.0678997  c-1.4946995,0-1.8316002-0.1763-1.8540001-0.1816025C18.1781998,111.7656021,18,111.4257965,18,109.9145966V93.2074966  C18,85.7954025,21.0137005,78.7724991,26.4853992,73.4311981z"/><circle cx="31" cy="67" r="2"/><text x="0" y="143" fill="#000000" font-size="5px" font-weight="bold" font-family="'Helvetica Neue', Helvetica, Arial-Unicode, Arial, Sans-serif">Created by WEBTECHOPS LLP</text><text x="0" y="148" fill="#000000" font-size="5px" font-weight="bold" font-family="'Helvetica Neue', Helvetica, Arial-Unicode, Arial, Sans-serif">from the Noun Project</text></svg>