<?xml version="1.0" encoding="utf-8"?>
<!-- Svg Vector Icons : http://www.onlinewebfonts.com/icon -->
<!DOCTYPE svg PUBLIC "-//W3C//DTD SVG 1.1//EN" "http://www.w3.org/Graphics/SVG/1.1/DTD/svg11.dtd">
<svg version="1.1" xmlns="http://www.w3.org/2000/svg" xmlns:xlink="http://www.w3.org/1999/xlink" x="0px" y="0px" viewBox="0 0 1000 1000" enable-background="new 0 0 1000 1000" xml:space="preserve">
<metadata> Svg Vector Icons : http://www.onlinewebfonts.com/icon </metadata>
<g><g transform="translate(0.000000,511.000000) scale(0.100000,-0.100000)"><path d="M1964.5,4230.2c-209-40.2-403.9-160.8-592.9-363.8c-199-213-287.4-446.1-265.3-707.4c8-78.4,18.1-162.8,24.1-184.9c10-34.2,2-46.2-38.2-56.3c-62.3-16.1-82.4-78.4-66.3-199c22.1-152.7,94.5-355.7,154.7-422c32.2-36.2,68.3-110.5,82.4-166.8c12.1-54.3,54.2-162.8,90.4-241.2c233.1-496.4,886.3-633,1282.2-269.3c106.5,98.5,243.2,353.7,265.3,492.4c10,70.3,22.1,90.4,50.2,90.4c62.3,0,116.6,80.4,168.8,247.2c58.3,182.9,66.3,357.7,18.1,403.9c-26.1,28.1-28.1,48.2-8,140.7c34.2,168.8,30.1,496.4-10,617c-36.2,108.5-154.8,259.2-203,259.2c-14.1,0-76.4,50.2-136.7,108.5C2561.4,4198.1,2266,4288.5,1964.5,4230.2z"/><path d="M7758.4,4230.2c-255.2-50.2-562.7-271.3-719.5-520.5c-118.6-188.9-162.8-430.1-124.6-673.2c14.1-92.4,12.1-102.5-28.1-120.6c-26.1-10-52.3-46.2-62.3-80.4c-30.1-118.6,84.4-502.4,168.8-560.7c20.1-14.1,50.2-78.4,68.3-144.7c50.2-194.9,138.7-361.7,253.2-476.3c122.6-122.6,249.2-186.9,438.1-227.1c403.9-84.4,813.9,188.9,924.5,615c12.1,50.2,26.1,106.5,32.1,126.6c6,18.1,28.1,34.2,48.2,34.2c50.2,0,92.4,66.3,152.7,233.1c68.3,188.9,82.4,329.6,38.2,405.9c-32.1,52.3-34.2,76.4-12.1,213c60.3,414-18.1,711.4-215,809.9c-46.2,22.1-106.5,70.3-138.7,106.5C8407.5,4180,8057.9,4290.5,7758.4,4230.2z"/><path d="M4808.2,3882.6c-148.7-38.2-203-64.3-353.7-164.8c-273.3-180.9-482.3-466.2-540.6-733.5c-24.1-112.5-18.1-401.9,10-494.4c12.1-38.2,6-46.2-26.1-46.2c-88.4,0-118.6-120.6-76.4-319.5c36.2-172.8,124.6-375.8,178.9-414c26.1-18.1,54.3-80.4,78.4-174.8c142.7-568.7,627-884.3,1151.5-749.6c323.6,84.4,546.6,331.6,645.1,713.4c32.1,120.6,44.2,140.7,82.4,140.7c138.7,0,307.5,600.9,201,719.5c-32.2,36.2-34.2,52.3-12.1,166.8c36.2,192.9,32.2,528.5-8,661.2c-38.2,130.6-144.7,263.3-239.2,303.5c-36.2,14.1-110.5,74.4-162.8,132.6C5523.7,3854.4,5131.8,3965,4808.2,3882.6z"/><path d="M1301.3,1466.9c-124.6-88.4-466.2-247.2-689.3-319.5c-269.3-86.4-321.6-114.6-381.8-194.9c-102.5-136.7-120.6-207-128.6-528.5c-4-164.8,0-341.6,8-391.9c16.1-84.4,24.1-94.5,136.7-154.7C762.8-400.1,1647-582.9,2268-540.7l192.9,14.1l12.1,243.2c18.1,349.7,92.4,568.7,255.2,745.6c102.5,110.5,235.1,180.9,478.3,255.2c106.5,34.2,311.5,116.6,452.2,184.9c299.4,144.7,301.4,138.7-14.1,237.1c-203,62.3-512.5,201-709.4,317.5l-104.5,62.3l-82.4-267.3c-207-663.2-345.7-1083.2-353.7-1075.2c-4,6-44.2,112.5-88.4,237.1L2223.8,641l52.3,78.4c122.6,182.9,140.7,331.6,54.3,418c-102.5,100.5-349.7,98.5-446.1-4c-74.4-80.4-38.2-271.3,78.4-436.1l40.2-56.3l-82.4-235.1c-46.2-128.6-88.4-227.1-98.5-219.1c-8,8-106.5,311.5-221.1,675.2c-114.5,361.7-211,657.2-217,657.2C1375.7,1517.2,1339.5,1495.1,1301.3,1466.9z"/><path d="M7039,1444.8c-166.8-100.5-454.2-233.1-623-285.4c-233.1-74.4-311.5-104.5-311.5-124.6c0-34.2,416-225.1,681.3-311.5c307.5-100.5,363.7-130.6,488.3-263.3c166.8-178.9,233.1-377.8,251.2-743.6l12.1-243.2l156.7-14.1C8287-593,9235.5-400.1,9752-122.7c106.5,58.3,120.6,72.4,136.7,144.7c8,44.2,14.1,221.1,10,391.9c-6,275.3-12.1,323.6-54.3,418c-66.3,148.7-168.8,229.1-359.7,285.4c-215,62.3-488.3,178.9-697.4,299.4c-98.5,56.3-178.9,100.5-180.9,98.5c-2-4-96.5-299.4-211-659.2c-112.5-359.7-211-659.2-219.1-667.2c-8-10-50.2,90.4-96.5,221.1c-74.4,215-78.4,241.2-52.2,275.3c62.3,80.4,126.6,243.2,126.6,317.5c0,106.5-26.1,144.7-120.6,182.9c-209,82.4-422-10-422-182.9c0-36.2,34.2-132.6,78.4-217l80.4-152.7l-72.4-205c-38.2-112.5-78.4-217.1-86.4-233.1c-16.1-28.1-36.2,30.1-341.7,998.8c-56.3,178.9-104.5,325.6-106.5,325.6C7161.5,1519.2,7105.3,1487,7039,1444.8z"/><path d="M4104.8,823.8c-192.9-120.6-580.8-297.4-819.9-371.8c-229.1-72.4-271.3-92.5-345.7-168.8c-50.2-50.2-104.5-132.6-132.6-203c-44.2-110.5-48.2-146.7-46.2-490.4c0-237.1,8-391.9,24.1-426c36.2-86.4,450.2-279.3,834-387.9l116.6-34.2l86.4,80.4c148.7,136.7,305.5,158.8,480.3,66.3l110.5-58.3l12.1,74.4c16.1,100.5,84.4,198.9,188.9,273.3c82.4,56.3,100.5,60.3,311.5,66.3c265.3,10,367.8-14.1,470.3-102.5c76.4-68.3,144.7-194.9,146.7-269.3c0-52.2,24.1-60.3,60.3-18.1c40.2,52.2,217,98.5,307.5,84.4c92.5-16.1,225.1-84.4,283.4-150.7c22.1-24.1,50.2-42.2,66.3-42.2c14.1,0,136.7,36.2,273.3,82.4c295.4,98.5,647.1,263.3,667.2,313.5c22.1,56.3,52.2,588.8,40.2,699.4c-28.1,229.1-130.6,432.1-255.2,508.4c-36.2,22.1-160.8,68.3-277.3,104.5c-201,60.3-639.1,259.2-817.9,369.8c-46.2,30.1-88.4,46.2-92.4,38.2c-4-10-110.5-337.6-235.1-729.5c-122.6-391.9-231.1-725.5-239.1-739.6c-8-14.1-54.3,88.4-108.5,241.2l-92.4,265.3L5180-8.2c211,329.6,140.7,542.6-180.9,542.6c-194.9,0-301.4-82.4-301.4-231.1c0-80.4,66.3-247.2,138.7-347.7l38.2-54.3l-96.5-269.3c-52.2-148.7-98.5-261.3-104.5-251.2c-6,10-112.5,339.6-237.1,731.5c-122.6,391.9-231.1,723.5-237.1,737.6C4189.2,866,4161.1,858,4104.8,823.8z"/><path d="M4782.1-1107.5c-26.1-24.1-46.2-84.4-64.3-182.9c-16.1-104.5-34.2-150.7-58.3-158.8c-18.1-6-84.4-34.2-148.7-62.3l-114.6-50.2l-136.7,94.5c-74.4,50.2-142.7,92.4-152.7,92.4c-30.1,0-293.4-267.3-293.4-297.4c0-16.1,40.2-90.4,92.5-164.8c88.4-130.6,90.4-134.6,58.3-192.9c-16.1-32.2-48.2-98.5-68.3-150.7l-38.2-90.4l-146.7-22.1c-96.5-16.1-156.8-36.2-172.8-58.3c-32.1-42.2-36.2-335.6-6-389.9c14.1-24.1,60.3-44.2,134.6-60.3c201-38.2,209-40.2,221.1-76.4c6-18.1,34.2-84.4,60.3-148.7l50.2-112.5l-92.4-134.6c-50.2-74.4-92.5-144.7-92.5-154.7s56.3-78.4,124.6-148.7c148.7-154.8,180.9-160.8,343.6-46.2l116.6,82.4l120.6-52.3c66.3-28.1,132.6-52.2,148.7-52.2c18.1,0,36.2-50.2,52.3-154.7c34.2-207,56.3-227.1,255.2-227.1c211,0,235.1,18.1,269.3,213c16.1,102.5,34.2,156.8,56.3,162.8c16.1,6,86.4,34.2,156.7,60.3l126.6,50.2l104.5-80.4c168.8-126.6,176.9-126.6,325.6,18.1c90.4,86.4,130.6,140.7,130.6,172.8c0,28.1-38.2,102.5-82.4,168.8l-84.4,118.6l54.3,118.6c28.1,64.3,52.2,126.6,52.2,138.7c0,36.2,60.3,58.3,188.9,74.4c170.8,22.1,192.9,50.2,192.9,259.2c0,156.8-4,172.8-50.2,209c-28.1,22.1-100.5,46.2-162.8,54.3c-134.6,16.1-168.8,28.1-168.8,54.3c0,10-22.1,76.4-52.2,146.7l-50.2,128.6l90.4,134.6c52.2,72.4,92.4,142.7,92.4,154.7c0,28.1-267.3,295.4-297.4,295.4c-12.1,0-82.4-42.2-156.7-92.4l-134.6-92.5l-112.5,50.2c-62.3,28.1-130.6,56.3-154.7,62.3c-34.2,10-46.2,38.2-66.3,156.7c-34.2,201-50.2,217-253.2,217C4858.5-1073.3,4814.2-1081.3,4782.1-1107.5z M5284.5-1901.3c311.5-142.7,480.3-506.4,389.9-832c-122.6-426-586.8-647.1-982.7-464.2c-154.7,70.3-265.3,176.8-339.6,331.6c-60.3,122.6-66.3,150.7-66.3,325.6c0,168.8,6,203,56.3,295.4c100.5,194.9,241.2,313.5,442.1,379.8C4914.7-1820.9,5147.9-1839,5284.5-1901.3z"/></g></g>
</svg>